#!OML:ASF \\sashay\E\Suitcase\Project 1\Capture day 1\Session 1\Male1.ASF
:FULLY-SPECIFIED
:DEGREES
614
root 0.466973 17.1544 0.678237 1.77168 3.86094 4.4386
lowerback 8.05856 -0.271631 -8.6375
upperback 2.16977 -1.05684 0.0442357
thorax -2.09733 -0.505631 5.00726
lowerneck -19.5615 -0.122101 -0.477818
upperneck 11.4798 0.113742 -0.930272
head 6.68542 -0.0526536 -0.212918
rclavicle 5.51627e-015 -1.92821e-014
rhumerus -49.5843 -45.0253 -45.1394
rradius 9.17725
rwrist 21.2417
rhand -17.1385 8.04588
rfingers 7.12502
rthumb 9.1017 -21.7377
lclavicle 5.51627e-015 -1.92821e-014
lhumerus -21.6565 -1.80233 80.2992
lradius 41.5974
lwrist 6.73515
lhand -8.21616 45.2057
lfingers 7.12502
lthumb 17.7008 74.42
rfemur -31.698 -4.1605 15.6975
rtibia 36.2553
rfoot -11.3103 -12.3102
rtoes 6.91514
lfemur 2.30524 -5.26541 -30.8594
ltibia 19.7845
lfoot -20.2679 -9.10774
ltoes 18.5758
615
root 0.478049 17.143 0.818863 1.85554 3.7797 4.46927
lowerback 7.99787 -0.218158 -8.62262
upperback 2.11655 -0.980199 0.0918206
thorax -2.13022 -0.464493 5.04137
lowerneck -20.2546 -0.177758 -1.81354
upperneck 12.3814 0.200864 0.392651
head 7.09099 0.0441106 0.444789
rclavicle 7.95139e-015 6.06293e-015
rhumerus -49.4352 -44.8136 -45.2899
rradius 9.86542
rwrist 20.8593
rhand -16.8842 7.84804
rfingers 7.12502
rthumb 9.34709 -21.9247
lclavicle 7.95139e-015 6.06293e-015
lhumerus -21.39 -2.81648 80.79
lradius 42.8228
lwrist 7.19494
lhand -7.55904 45.3482
lfingers 7.12502
lthumb 18.3331 74.5043
rfemur -31.5816 -4.32227 15.8769
rtibia 33.1349
rfoot -10.1128 -12.0804
rtoes 6.16684
lfemur 3.29731 -5.184 -30.968
ltibia 18.5943
lfoot -20.0635 -9.06388
ltoes 18.5731
616
root 0.477643 17.1479 0.952581 2.08317 4.12105 4.82246
lowerback 7.69747 -0.321761 -8.81777
upperback 2.18147 -1.10299 -0.0612011
thorax -1.87527 -0.53825 4.99491
lowerneck -20.0674 -0.360331 -1.5982
upperneck 11.9522 -0.0555039 0.0668789
head 6.92237 -0.0969898 0.272784
rclavicle 5.29264e-015 -1.36167e-014
rhumerus -48.3409 -45.2772 -46.2693
rradius 9.3224
rwrist 20.1706
rhand -16.57 8.00766
rfingers 7.12502
rthumb 9.65026 -21.7513
lclavicle 5.29264e-015 -1.36167e-014
lhumerus -20.8918 -3.87609 81.0434
lradius 43.7595
lwrist 7.39223
lhand -7.50853 45.2845
lfingers 7.12502
lthumb 18.3817 74.436
rfemur -31.4647 -4.4526 15.6194
rtibia 30.0723
rfoot -9.77087 -12.3818
rtoes 8.06198
lfemur 4.05499 -5.19325 -31.2491
ltibia 17.615
lfoot -19.3252 -9.9411
ltoes 21.5261
617
root 0.487171 17.1312 1.09998 2.22068 4.06253 4.68214
lowerback 7.66968 -0.28781 -8.53869
upperback 1.96259 -1.04389 -0.0123747
thorax -2.10319 -0.492641 4.88587
lowerneck -20.1263 -0.505454 -1.64427
upperneck 12.3228 -0.199634 -0.145013
head 7.05492 -0.190745 0.194014
rclavicle -1.56294e-014 5.66536e-015
rhumerus -48.6616 -44.9527 -46.2519
rradius 9.90334
rwrist 19.8299
rhand -16.6905 8.96111
rfingers 7.12502
rthumb 9.53393 -20.8032
lclavicle -1.56294e-014 5.66536e-015
lhumerus -20.9429 -4.56598 81.4986
lradius 44.9013
lwrist 7.532
lhand -7.68283 45.3532
lfingers 7.12502
lthumb 18.214 74.5204
rfemur -31.3234 -4.08954 15.8294
rtibia 27.1817
rfoot -9.87481 -12.5002
rtoes 9.13774
lfemur 5.10556 -5.08041 -31.1329
ltibia 16.5269
lfoot -19.494 -9.90403
ltoes 19.7382
618
root 0.48377 17.1277 1.22792 2.29841 4.15986 4.60749
lowerback 7.50707 -0.372668 -8.44185
upperback 2.15192 -1.12185 0.0598136
thorax -1.80359 -0.550549 4.9084
lowerneck -19.9152 -0.476261 -1.91028
upperneck 11.6245 -0.11971 -0.000769016
head 6.79134 -0.146869 0.293456
rclavicle -1.85615e-014 9.74045e-015
rhumerus -47.6748 -45.0094 -47.1204
rradius 10.1278
rwrist 19.4313
rhand -16.5963 9.98383
rfingers 7.12502
rthumb 9.62483 -19.7763
lclavicle -1.85615e-014 9.74045e-015
lhumerus -20.65 -4.96617 81.8039
lradius 46.1588
lwrist 7.40552
lhand -7.90198 44.7016
lfingers 7.12502
lthumb 18.0031 73.8884
rfemur -31.0793 -3.62512 15.8711
rtibia 24.2734
rfoot -9.65856 -12.8344
rtoes 6.78192
lfemur 5.95566 -4.79234 -30.9706
ltibia 15.4732
lfoot -18.7678 -10.1479
ltoes 19.5229
619
root 0.485645 17.1253 1.37339 2.57638 4.22297 4.95024
lowerback 7.44548 -0.3004 -8.75066
upperback 1.9261 -1.05474 0.0462754
thorax -2.009 -0.500406 5.06407
lowerneck -20.3631 -0.377427 -1.72791
upperneck 11.5313 0.0336628 -0.372594
head 6.83276 -0.0991648 0.159813
rclavicle 2.34566e-014 1.17283e-014
rhumerus -47.7272 -45.0513 -47.0359
rradius 10.3081
rwrist 19.6796
rhand -16.5992 10.2742
rfingers 7.12502
rthumb 9.62207 -19.4861
lclavicle 2.34566e-014 1.17283e-014
lhumerus -20.9483 -5.89147 82.3696
lradius 47.5905
lwrist 7.54525
lhand -6.95653 45.2092
lfingers 7.12502
lthumb 18.9126 74.3098
rfemur -31.0328 -2.78734 15.2772
rtibia 21.787
rfoot -9.63975 -13.2889
rtoes 4.73109
lfemur 6.90031 -4.43698 -31.2742
ltibia 14.2655
lfoot -19.0484 -10.2035
ltoes 16.2057
620
root 0.48201 17.124 1.52138 2.69329 4.25698 4.38833
lowerback 6.99737 -0.381457 -8.21257
upperback 1.92797 -1.07609 0.200573
thorax -1.76263 -0.523249 4.91581
lowerneck -19.8268 -0.532728 -2.47902
upperneck 11.4991 -0.112684 0.422297
head 6.73651 -0.129745 0.523632
rclavicle -6.38596e-015 -1.64991e-014
rhumerus -46.2989 -44.6023 -48.5471
rradius 9.7886
rwrist 18.5278
rhand -16.6937 10.4689
rfingers 7.12502
rthumb 9.53089 -19.2955
lclavicle -6.38596e-015 -1.64991e-014
lhumerus -20.6363 -6.64939 82.5937
lradius 48.2855
lwrist 7.69522
lhand -7.16906 45.0922
lfingers 7.12502
lthumb 18.7082 74.2126
rfemur -30.7064 -1.54845 15.5369
rtibia 19.37
rfoot -10.1 -13.9099
rtoes 2.57991
lfemur 7.71101 -4.11029 -30.4925
ltibia 13.3876
lfoot -18.5392 -10.9349
ltoes 19.1145
621
root 0.481425 17.0997 1.66962 2.75119 4.21629 4.97141
lowerback 6.79309 -0.325607 -8.73657
upperback 1.95344 -1.01929 0.0892263
thorax -1.62132 -0.501021 5.08593
lowerneck -19.7801 -0.541611 -1.55294
upperneck 11.2647 -0.16622 -0.895548
head 6.65225 -0.232514 -0.06029
rclavicle -2.76062e-014 1.55052e-014
rhumerus -45.8121 -43.9587 -49.391
rradius 10.408
rwrist 17.2974
rhand -16.6683 11.1156
rfingers 7.12502
rthumb 9.55542 -18.6477
lclavicle -2.76062e-014 1.55052e-014
lhumerus -20.7577 -6.92617 83.1018
lradius 49.3609
lwrist 7.29893
lhand -6.99531 45.3967
lfingers 7.12502
lthumb 18.8753 74.5008
rfemur -30.3393 -0.464751 14.4958
rtibia 17.3369
rfoot -11.2243 -14.3426
rtoes 2.31018
lfemur 8.58175 -3.89987 -31.1251
ltibia 12.5964
lfoot -18.6775 -11.0634
ltoes 16.4303
622
root 0.47861 17.102 1.80359 2.94257 4.11775 4.74981
lowerback 6.77162 -0.298672 -8.56215
upperback 1.85282 -0.971813 0.22513
thorax -1.72278 -0.470165 5.12743
lowerneck -20.2028 -0.457077 -1.98325
upperneck 11.4841 0.00534775 -0.448569
head 6.79186 -0.131096 0.17293
rclavicle -1.26477e-014 -2.18663e-015
rhumerus -45.89 -44.8586 -48.8917
rradius 10.4348
rwrist 18.2108
rhand -16.2463 11.1147
rfingers 7.12502
rthumb 9.96258 -18.6296
lclavicle -1.26477e-014 -2.18663e-015
lhumerus -20.6313 -7.60775 83.5324
lradius 50.3182
lwrist 7.91547
lhand -6.8108 45.8681
lfingers 7.12502
lthumb 19.0528 74.9549
rfemur -30.3338 1.09819 14.2471
rtibia 15.9077
rfoot -12.3415 -15.0994
rtoes 1.08284
lfemur 9.17802 -3.87078 -30.8485
ltibia 11.8259
lfoot -17.8867 -11.2597
ltoes 18.15
623
root 0.465351 17.0857 1.94598 3.05384 4.02082 4.15083
lowerback 6.50113 -0.252499 -8.1064
upperback 1.88634 -0.84574 0.597583
thorax -1.55791 -0.416674 5.24682
lowerneck -19.8183 -0.456062 -2.01694
upperneck 11.1109 0.0350284 -0.65541
head 6.60789 -0.133262 0.114991
rclavicle -9.44227e-016 -1.59028e-015
rhumerus -45.1154 -45.0585 -49.2101
rradius 10.3065
rwrist 17.8209
rhand -16.5335 12.1542
rfingers 7.12502
rthumb 9.68549 -17.6031
lclavicle -9.44227e-016 -1.59028e-015
lhumerus -20.8625 -7.82017 84.2074
lradius 51.6475
lwrist 7.80941
lhand -6.25192 46.7826
lfingers 7.12502
lthumb 19.5902 75.8156
rfemur -30.4753 2.36955 14.6366
rtibia 15.1487
rfoot -13.3854 -15.8714
rtoes -1.4289
lfemur 9.95967 -3.67318 -30.1011
ltibia 11.039
lfoot -17.8072 -11.3439
ltoes 16.864
624
root 0.476573 17.048 2.08817 3.23466 4.06454 4.6544
lowerback 6.55167 -0.295988 -8.26868
upperback 1.646 -0.933899 0.384627
thorax -1.82464 -0.441247 5.12472
lowerneck -19.3739 -0.368242 -1.94256
upperneck 10.9052 0.116751 -0.639695
head 6.46828 -0.086199 0.11791
rclavicle -2.38542e-015 -8.54774e-015
rhumerus -44.2269 -43.7557 -50.9067
rradius 10.7513
rwrist 16.0697
rhand -16.5636 12.2779
rfingers 7.12502
rthumb 9.65641 -17.4808
lclavicle -2.38542e-015 -8.54774e-015
lhumerus -21.1573 -8.73229 84.5225
lradius 52.2786
lwrist 8.41018
lhand -7.38968 44.9263
lfingers 7.12502
lthumb 18.496 74.0669
rfemur -30.6648 1.68695 14.4394
rtibia 14.8516
rfoot -14.0132 -15.0604
rtoes -2.49516
lfemur 10.8407 -3.56457 -30.637
ltibia 10.4911
lfoot -16.9923 -11.0776
ltoes 18.5271
625
root 0.485111 17.0484 2.24149 3.23745 4.17565 4.9421
lowerback 6.44336 -0.350001 -8.37972
upperback 1.64537 -1.0026 0.394831
thorax -1.75207 -0.478286 5.20132
lowerneck -19.9792 -0.498224 -1.77988
upperneck 10.9083 0.0455017 -1.47877
head 6.56968 -0.191078 -0.189619
rclavicle 1.11816e-014 -3.77691e-015
rhumerus -43.039 -42.5773 -52.5124
rradius 11.2049
rwrist 14.341
rhand -16.2619 12.5851
rfingers 7.12502
rthumb 9.94747 -17.1599
lclavicle 1.11816e-014 -3.77691e-015
lhumerus -21.3309 -8.94962 85.1099
lradius 53.0036
lwrist 8.07449
lhand -6.70108 45.0518
lfingers 7.12502
lthumb 19.1583 74.1282
rfemur -30.5373 0.645443 14.6994
rtibia 14.9698
rfoot -14.1635 -14.2529
rtoes -2.77207
lfemur 11.2816 -4.29133 -31.1402
ltibia 10.1977
lfoot -15.8533 -11.1217
ltoes 22.2097
